<svg width="160" height="195" viewBox="0 0 160 195" fill="none" xmlns="http://www.w3.org/2000/svg">
<path d="M8.81818 187V163.727H16.9545C18.5758 163.727 19.9129 164.008 20.9659 164.568C22.0189 165.121 22.803 165.867 23.3182 166.807C23.8333 167.739 24.0909 168.773 24.0909 169.909C24.0909 170.909 23.9129 171.735 23.5568 172.386C23.2083 173.038 22.7462 173.553 22.1705 173.932C21.6023 174.311 20.9848 174.591 20.3182 174.773V175C21.0303 175.045 21.7462 175.295 22.4659 175.75C23.1856 176.205 23.7879 176.856 24.2727 177.705C24.7576 178.553 25 179.591 25 180.818C25 181.985 24.7348 183.034 24.2045 183.966C23.6742 184.898 22.8371 185.636 21.6932 186.182C20.5492 186.727 19.0606 187 17.2273 187H8.81818ZM11.6364 184.5H17.2273C19.0682 184.5 20.375 184.144 21.1477 183.432C21.928 182.712 22.3182 181.841 22.3182 180.818C22.3182 180.03 22.1174 179.303 21.7159 178.636C21.3144 177.962 20.7424 177.424 20 177.023C19.2576 176.614 18.3788 176.409 17.3636 176.409H11.6364V184.5ZM11.6364 173.955H16.8636C17.7121 173.955 18.4773 173.788 19.1591 173.455C19.8485 173.121 20.3939 172.652 20.7955 172.045C21.2045 171.439 21.4091 170.727 21.4091 169.909C21.4091 168.886 21.053 168.019 20.3409 167.307C19.6288 166.587 18.5 166.227 16.9545 166.227H11.6364V173.955ZM36.358 187.364C34.7822 187.364 33.3996 186.989 32.2102 186.239C31.0284 185.489 30.1042 184.439 29.4375 183.091C28.7784 181.742 28.4489 180.167 28.4489 178.364C28.4489 176.545 28.7784 174.958 29.4375 173.602C30.1042 172.246 31.0284 171.193 32.2102 170.443C33.3996 169.693 34.7822 169.318 36.358 169.318C37.9337 169.318 39.3125 169.693 40.4943 170.443C41.6837 171.193 42.608 172.246 43.267 173.602C43.9337 174.958 44.267 176.545 44.267 178.364C44.267 180.167 43.9337 181.742 43.267 183.091C42.608 184.439 41.6837 185.489 40.4943 186.239C39.3125 186.989 37.9337 187.364 36.358 187.364ZM36.358 184.955C37.5549 184.955 38.5398 184.648 39.3125 184.034C40.0852 183.42 40.6572 182.614 41.0284 181.614C41.3996 180.614 41.5852 179.53 41.5852 178.364C41.5852 177.197 41.3996 176.11 41.0284 175.102C40.6572 174.095 40.0852 173.28 39.3125 172.659C38.5398 172.038 37.5549 171.727 36.358 171.727C35.161 171.727 34.1761 172.038 33.4034 172.659C32.6307 173.28 32.0587 174.095 31.6875 175.102C31.3163 176.11 31.1307 177.197 31.1307 178.364C31.1307 179.53 31.3163 180.614 31.6875 181.614C32.0587 182.614 32.6307 183.42 33.4034 184.034C34.1761 184.648 35.161 184.955 36.358 184.955ZM55.4517 187.364C53.8759 187.364 52.4934 186.989 51.304 186.239C50.1222 185.489 49.1979 184.439 48.5312 183.091C47.8722 181.742 47.5426 180.167 47.5426 178.364C47.5426 176.545 47.8722 174.958 48.5312 173.602C49.1979 172.246 50.1222 171.193 51.304 170.443C52.4934 169.693 53.8759 169.318 55.4517 169.318C57.0275 169.318 58.4063 169.693 59.5881 170.443C60.7775 171.193 61.7017 172.246 62.3608 173.602C63.0275 174.958 63.3608 176.545 63.3608 178.364C63.3608 180.167 63.0275 181.742 62.3608 183.091C61.7017 184.439 60.7775 185.489 59.5881 186.239C58.4063 186.989 57.0275 187.364 55.4517 187.364ZM55.4517 184.955C56.6487 184.955 57.6335 184.648 58.4062 184.034C59.179 183.42 59.7509 182.614 60.1222 181.614C60.4934 180.614 60.679 179.53 60.679 178.364C60.679 177.197 60.4934 176.11 60.1222 175.102C59.7509 174.095 59.179 173.28 58.4062 172.659C57.6335 172.038 56.6487 171.727 55.4517 171.727C54.2547 171.727 53.2699 172.038 52.4972 172.659C51.7244 173.28 51.1525 174.095 50.7812 175.102C50.41 176.11 50.2244 177.197 50.2244 178.364C50.2244 179.53 50.41 180.614 50.7812 181.614C51.1525 182.614 51.7244 183.42 52.4972 184.034C53.2699 184.648 54.2547 184.955 55.4517 184.955ZM75.0455 169.545V171.818H66V169.545H75.0455ZM68.6364 165.364H71.3182V182C71.3182 182.758 71.428 183.326 71.6477 183.705C71.875 184.076 72.1629 184.326 72.5114 184.455C72.8674 184.576 73.2424 184.636 73.6364 184.636C73.9318 184.636 74.1742 184.621 74.3636 184.591C74.553 184.553 74.7045 184.523 74.8182 184.5L75.3636 186.909C75.1818 186.977 74.928 187.045 74.6023 187.114C74.2765 187.189 73.8636 187.227 73.3636 187.227C72.6061 187.227 71.8636 187.064 71.1364 186.739C70.4167 186.413 69.8182 185.917 69.3409 185.25C68.8712 184.583 68.6364 183.742 68.6364 182.727V165.364ZM85.983 187.364C84.3466 187.364 82.9375 186.977 81.7557 186.205C80.5739 185.432 79.6648 184.367 79.0284 183.011C78.392 181.655 78.0739 180.106 78.0739 178.364C78.0739 176.591 78.3996 175.027 79.0511 173.67C79.7102 172.307 80.6269 171.242 81.8011 170.477C82.983 169.705 84.3617 169.318 85.9375 169.318C87.1648 169.318 88.2708 169.545 89.2557 170C90.2405 170.455 91.0473 171.091 91.6761 171.909C92.3049 172.727 92.6951 173.682 92.8466 174.773H90.1648C89.9602 173.977 89.5057 173.273 88.8011 172.659C88.1042 172.038 87.1648 171.727 85.983 171.727C84.9375 171.727 84.0208 172 83.233 172.545C82.4527 173.083 81.8428 173.845 81.4034 174.83C80.9716 175.807 80.7557 176.955 80.7557 178.273C80.7557 179.621 80.9678 180.795 81.392 181.795C81.8239 182.795 82.4299 183.572 83.2102 184.125C83.9981 184.678 84.9223 184.955 85.983 184.955C86.6799 184.955 87.3125 184.833 87.8807 184.591C88.4489 184.348 88.9299 184 89.3239 183.545C89.7178 183.091 89.9981 182.545 90.1648 181.909H92.8466C92.6951 182.939 92.3201 183.867 91.7216 184.693C91.1307 185.511 90.3466 186.163 89.3693 186.648C88.3996 187.125 87.2708 187.364 85.983 187.364ZM101.903 187.409C100.797 187.409 99.7936 187.201 98.892 186.784C97.9905 186.36 97.2746 185.75 96.7443 184.955C96.214 184.152 95.9489 183.182 95.9489 182.045C95.9489 181.045 96.1458 180.235 96.5398 179.614C96.9337 178.985 97.4602 178.492 98.1193 178.136C98.7784 177.78 99.5057 177.515 100.301 177.341C101.104 177.159 101.911 177.015 102.722 176.909C103.782 176.773 104.642 176.67 105.301 176.602C105.968 176.527 106.453 176.402 106.756 176.227C107.066 176.053 107.222 175.75 107.222 175.318V175.227C107.222 174.106 106.915 173.235 106.301 172.614C105.695 171.992 104.775 171.682 103.54 171.682C102.259 171.682 101.256 171.962 100.528 172.523C99.8011 173.083 99.2898 173.682 98.9943 174.318L96.4489 173.409C96.9034 172.348 97.5095 171.523 98.267 170.932C99.0322 170.333 99.8655 169.917 100.767 169.682C101.676 169.439 102.57 169.318 103.449 169.318C104.009 169.318 104.653 169.386 105.381 169.523C106.116 169.652 106.824 169.92 107.506 170.33C108.195 170.739 108.767 171.356 109.222 172.182C109.676 173.008 109.903 174.114 109.903 175.5V187H107.222V184.636H107.085C106.903 185.015 106.6 185.42 106.176 185.852C105.752 186.284 105.188 186.652 104.483 186.955C103.778 187.258 102.919 187.409 101.903 187.409ZM102.312 185C103.373 185 104.267 184.792 104.994 184.375C105.729 183.958 106.282 183.42 106.653 182.761C107.032 182.102 107.222 181.409 107.222 180.682V178.227C107.108 178.364 106.858 178.489 106.472 178.602C106.093 178.708 105.653 178.803 105.153 178.886C104.661 178.962 104.18 179.03 103.71 179.091C103.248 179.144 102.873 179.189 102.585 179.227C101.888 179.318 101.237 179.466 100.631 179.67C100.032 179.867 99.5473 180.167 99.1761 180.568C98.8125 180.962 98.6307 181.5 98.6307 182.182C98.6307 183.114 98.9754 183.818 99.6648 184.295C100.362 184.765 101.244 185 102.312 185ZM114.798 187V169.545H117.389V172.273H117.616C117.98 171.341 118.567 170.617 119.378 170.102C120.188 169.58 121.162 169.318 122.298 169.318C123.45 169.318 124.408 169.58 125.173 170.102C125.946 170.617 126.548 171.341 126.98 172.273H127.162C127.609 171.371 128.279 170.655 129.173 170.125C130.067 169.587 131.139 169.318 132.389 169.318C133.95 169.318 135.226 169.807 136.219 170.784C137.211 171.754 137.707 173.265 137.707 175.318V187H135.026V175.318C135.026 174.03 134.673 173.11 133.969 172.557C133.264 172.004 132.435 171.727 131.48 171.727C130.253 171.727 129.302 172.098 128.628 172.841C127.954 173.576 127.616 174.508 127.616 175.636V187H124.889V175.045C124.889 174.053 124.567 173.254 123.923 172.648C123.279 172.034 122.45 171.727 121.435 171.727C120.738 171.727 120.086 171.913 119.48 172.284C118.882 172.655 118.397 173.17 118.026 173.83C117.662 174.481 117.48 175.235 117.48 176.091V187H114.798ZM142.611 193.545V169.545H145.202V172.318H145.52C145.717 172.015 145.99 171.629 146.338 171.159C146.694 170.682 147.202 170.258 147.861 169.886C148.527 169.508 149.429 169.318 150.565 169.318C152.035 169.318 153.33 169.686 154.452 170.42C155.573 171.155 156.448 172.197 157.077 173.545C157.705 174.894 158.02 176.485 158.02 178.318C158.02 180.167 157.705 181.769 157.077 183.125C156.448 184.473 155.577 185.519 154.463 186.261C153.349 186.996 152.065 187.364 150.611 187.364C149.49 187.364 148.592 187.178 147.918 186.807C147.243 186.428 146.724 186 146.361 185.523C145.997 185.038 145.717 184.636 145.52 184.318H145.293V193.545H142.611ZM145.247 178.273C145.247 179.591 145.44 180.754 145.827 181.761C146.213 182.761 146.777 183.545 147.52 184.114C148.262 184.674 149.171 184.955 150.247 184.955C151.368 184.955 152.304 184.659 153.054 184.068C153.812 183.47 154.38 182.667 154.759 181.659C155.145 180.644 155.338 179.515 155.338 178.273C155.338 177.045 155.149 175.939 154.77 174.955C154.399 173.962 153.834 173.178 153.077 172.602C152.327 172.019 151.384 171.727 150.247 171.727C149.156 171.727 148.24 172.004 147.497 172.557C146.755 173.102 146.194 173.867 145.815 174.852C145.437 175.83 145.247 176.97 145.247 178.273Z" fill="currentColor"/>
<g clip-path="url(#clip0_40_4)">
<path d="M31.875 84.0225V109.522L76.5 133.875L121.125 109.522V84.0225L76.5 108.375L31.875 84.0225ZM76.5 19.125L6.375 57.375L76.5 95.625L133.875 64.3237V108.375H146.625V57.375L76.5 19.125Z" fill="currentColor"/>
</g>
<defs>
<clipPath id="clip0_40_4">
<rect width="153" height="153" fill="transparent"/>
</clipPath>
</defs>
</svg>
