<svg width="197" height="197" viewBox="0 0 197 197" fill="none" xmlns="http://www.w3.org/2000/svg">
<path d="M149.668 46.6994C146.478 43.5097 141.325 43.5097 138.136 46.6994L98.1426 86.6108L58.1494 46.6176C54.9598 43.4279 49.8073 43.4279 46.6176 46.6176C43.428 49.8072 43.428 54.9597 46.6176 58.1494L86.6109 98.1426L46.6176 138.136C43.428 141.325 43.428 146.478 46.6176 149.668C49.8073 152.857 54.9598 152.857 58.1494 149.668L98.1426 109.674L138.136 149.668C141.325 152.857 146.478 152.857 149.668 149.668C152.857 146.478 152.857 141.325 149.668 138.136L109.674 98.1426L149.668 58.1494C152.775 55.0415 152.775 49.8072 149.668 46.6994Z" fill="currentColor"/>
</svg>
