<svg width="175" height="216" viewBox="0 0 175 216" fill="none" xmlns="http://www.w3.org/2000/svg">
<path d="M18.6364 184.727V208H15.8182V184.727H18.6364ZM26.6051 197.5V208H23.9233V190.545H26.5142V193.273H26.7415C27.1506 192.386 27.7718 191.674 28.6051 191.136C29.4384 190.591 30.5142 190.318 31.8324 190.318C33.0142 190.318 34.0483 190.561 34.9347 191.045C35.821 191.523 36.5104 192.25 37.0028 193.227C37.4953 194.197 37.7415 195.424 37.7415 196.909V208H35.0597V197.091C35.0597 195.72 34.7036 194.652 33.9915 193.886C33.2794 193.114 32.3021 192.727 31.0597 192.727C30.2036 192.727 29.4384 192.913 28.7642 193.284C28.0975 193.655 27.571 194.197 27.1847 194.909C26.7983 195.621 26.6051 196.485 26.6051 197.5ZM50.233 190.545V192.818H41.1875V190.545H50.233ZM43.8239 186.364H46.5057V203C46.5057 203.758 46.6155 204.326 46.8352 204.705C47.0625 205.076 47.3504 205.326 47.6989 205.455C48.0549 205.576 48.4299 205.636 48.8239 205.636C49.1193 205.636 49.3617 205.621 49.5511 205.591C49.7405 205.553 49.892 205.523 50.0057 205.5L50.5511 207.909C50.3693 207.977 50.1155 208.045 49.7898 208.114C49.464 208.189 49.0511 208.227 48.5511 208.227C47.7936 208.227 47.0511 208.064 46.3239 207.739C45.6042 207.413 45.0057 206.917 44.5284 206.25C44.0587 205.583 43.8239 204.742 43.8239 203.727V186.364ZM61.3977 208.364C59.7159 208.364 58.2652 207.992 57.0455 207.25C55.8333 206.5 54.8977 205.455 54.2386 204.114C53.5871 202.765 53.2614 201.197 53.2614 199.409C53.2614 197.621 53.5871 196.045 54.2386 194.682C54.8977 193.311 55.8144 192.242 56.9886 191.477C58.1705 190.705 59.5492 190.318 61.125 190.318C62.0341 190.318 62.9318 190.47 63.8182 190.773C64.7045 191.076 65.5114 191.568 66.2386 192.25C66.9659 192.924 67.5455 193.818 67.9773 194.932C68.4091 196.045 68.625 197.417 68.625 199.045V200.182H55.1705V197.864H65.8977C65.8977 196.879 65.7008 196 65.3068 195.227C64.9205 194.455 64.3674 193.845 63.6477 193.398C62.9356 192.951 62.0947 192.727 61.125 192.727C60.0568 192.727 59.1326 192.992 58.3523 193.523C57.5795 194.045 56.9848 194.727 56.5682 195.568C56.1515 196.409 55.9432 197.311 55.9432 198.273V199.818C55.9432 201.136 56.1705 202.254 56.625 203.17C57.0871 204.08 57.7273 204.773 58.5455 205.25C59.3636 205.72 60.3144 205.955 61.3977 205.955C62.1023 205.955 62.7386 205.856 63.3068 205.659C63.8826 205.455 64.3788 205.152 64.7955 204.75C65.2121 204.341 65.5341 203.833 65.7614 203.227L68.3523 203.955C68.0795 204.833 67.6212 205.606 66.9773 206.273C66.3333 206.932 65.5379 207.447 64.5909 207.818C63.6439 208.182 62.5795 208.364 61.3977 208.364ZM72.7045 208V190.545H75.2955V193.182H75.4773C75.7955 192.318 76.3712 191.617 77.2045 191.08C78.0379 190.542 78.9773 190.273 80.0227 190.273C80.2197 190.273 80.4659 190.277 80.7614 190.284C81.0568 190.292 81.2803 190.303 81.4318 190.318V193.045C81.3409 193.023 81.1326 192.989 80.8068 192.943C80.4886 192.89 80.1515 192.864 79.7955 192.864C78.947 192.864 78.1894 193.042 77.5227 193.398C76.8636 193.746 76.3409 194.231 75.9545 194.852C75.5758 195.466 75.3864 196.167 75.3864 196.955V208H72.7045ZM87.2926 197.5V208H84.6108V190.545H87.2017V193.273H87.429C87.8381 192.386 88.4593 191.674 89.2926 191.136C90.1259 190.591 91.2017 190.318 92.5199 190.318C93.7017 190.318 94.7358 190.561 95.6222 191.045C96.5085 191.523 97.1979 192.25 97.6903 193.227C98.1828 194.197 98.429 195.424 98.429 196.909V208H95.7472V197.091C95.7472 195.72 95.3911 194.652 94.679 193.886C93.9669 193.114 92.9896 192.727 91.7472 192.727C90.8911 192.727 90.1259 192.913 89.4517 193.284C88.785 193.655 88.2585 194.197 87.8722 194.909C87.4858 195.621 87.2926 196.485 87.2926 197.5ZM115.693 194.455L113.284 195.136C113.133 194.735 112.909 194.345 112.614 193.966C112.326 193.58 111.932 193.261 111.432 193.011C110.932 192.761 110.292 192.636 109.511 192.636C108.443 192.636 107.553 192.883 106.841 193.375C106.136 193.86 105.784 194.477 105.784 195.227C105.784 195.894 106.027 196.42 106.511 196.807C106.996 197.193 107.754 197.515 108.784 197.773L111.375 198.409C112.936 198.788 114.098 199.367 114.864 200.148C115.629 200.92 116.011 201.917 116.011 203.136C116.011 204.136 115.723 205.03 115.148 205.818C114.58 206.606 113.784 207.227 112.761 207.682C111.739 208.136 110.549 208.364 109.193 208.364C107.413 208.364 105.939 207.977 104.773 207.205C103.606 206.432 102.867 205.303 102.557 203.818L105.102 203.182C105.345 204.121 105.803 204.826 106.477 205.295C107.159 205.765 108.049 206 109.148 206C110.398 206 111.39 205.735 112.125 205.205C112.867 204.667 113.239 204.023 113.239 203.273C113.239 202.667 113.027 202.159 112.602 201.75C112.178 201.333 111.527 201.023 110.648 200.818L107.739 200.136C106.14 199.758 104.966 199.17 104.216 198.375C103.473 197.572 103.102 196.568 103.102 195.364C103.102 194.379 103.379 193.508 103.932 192.75C104.492 191.992 105.254 191.398 106.216 190.966C107.186 190.534 108.284 190.318 109.511 190.318C111.239 190.318 112.595 190.697 113.58 191.455C114.572 192.212 115.277 193.212 115.693 194.455ZM122.73 197.5V208H120.048V184.727H122.73V193.273H122.957C123.366 192.371 123.98 191.655 124.798 191.125C125.624 190.587 126.723 190.318 128.094 190.318C129.283 190.318 130.325 190.557 131.219 191.034C132.113 191.504 132.806 192.227 133.298 193.205C133.798 194.174 134.048 195.409 134.048 196.909V208H131.366V197.091C131.366 195.705 131.007 194.633 130.287 193.875C129.575 193.11 128.586 192.727 127.321 192.727C126.442 192.727 125.654 192.913 124.957 193.284C124.268 193.655 123.723 194.197 123.321 194.909C122.927 195.621 122.73 196.485 122.73 197.5ZM138.955 208V190.545H141.636V208H138.955ZM140.318 187.636C139.795 187.636 139.345 187.458 138.966 187.102C138.595 186.746 138.409 186.318 138.409 185.818C138.409 185.318 138.595 184.89 138.966 184.534C139.345 184.178 139.795 184 140.318 184C140.841 184 141.288 184.178 141.659 184.534C142.038 184.89 142.227 185.318 142.227 185.818C142.227 186.318 142.038 186.746 141.659 187.102C141.288 187.458 140.841 187.636 140.318 187.636ZM146.548 214.545V190.545H149.139V193.318H149.457C149.654 193.015 149.927 192.629 150.276 192.159C150.632 191.682 151.139 191.258 151.798 190.886C152.465 190.508 153.366 190.318 154.503 190.318C155.973 190.318 157.268 190.686 158.389 191.42C159.51 192.155 160.385 193.197 161.014 194.545C161.643 195.894 161.957 197.485 161.957 199.318C161.957 201.167 161.643 202.769 161.014 204.125C160.385 205.473 159.514 206.519 158.401 207.261C157.287 207.996 156.003 208.364 154.548 208.364C153.427 208.364 152.529 208.178 151.855 207.807C151.181 207.428 150.662 207 150.298 206.523C149.935 206.038 149.654 205.636 149.457 205.318H149.23V214.545H146.548ZM149.185 199.273C149.185 200.591 149.378 201.754 149.764 202.761C150.151 203.761 150.715 204.545 151.457 205.114C152.2 205.674 153.109 205.955 154.185 205.955C155.306 205.955 156.241 205.659 156.991 205.068C157.749 204.47 158.317 203.667 158.696 202.659C159.082 201.644 159.276 200.515 159.276 199.273C159.276 198.045 159.086 196.939 158.707 195.955C158.336 194.962 157.772 194.178 157.014 193.602C156.264 193.019 155.321 192.727 154.185 192.727C153.094 192.727 152.177 193.004 151.435 193.557C150.692 194.102 150.132 194.867 149.753 195.852C149.374 196.83 149.185 197.97 149.185 199.273Z" fill="currentColor"/>
<g clip-path="url(#clip0_40_3)">
<path d="M105.833 81.7499H84.6667V71.1666C84.6667 65.2928 79.9571 60.5833 74.0833 60.5833H52.9167C47.0429 60.5833 42.3333 65.2928 42.3333 71.1666V81.7499H21.1667C15.2929 81.7499 10.6363 86.4595 10.6363 92.3333L10.5833 150.542C10.5833 156.415 15.2929 161.125 21.1667 161.125H105.833C111.707 161.125 116.417 156.415 116.417 150.542V92.3333C116.417 86.4595 111.707 81.7499 105.833 81.7499ZM74.0833 81.7499H52.9167V71.1666H74.0833V81.7499Z" fill="black"/>
</g>
<g clip-path="url(#clip1_40_3)">
<path d="M99 52.72V68.72L127 84L155 68.72V52.72L127 68L99 52.72ZM127 12L83 36L127 60L163 40.36V68H171V36L127 12Z" fill="currentColor"/>
</g>
<defs>
<clipPath id="clip0_40_3">
<rect width="127" height="127" fill="transparent" transform="translate(0 50)"/>
</clipPath>
<clipPath id="clip1_40_3">
<rect width="96" height="96" fill="transparent" transform="translate(79)"/>
</clipPath>
</defs>
</svg>
