<svg width="83" height="76" viewBox="0 0 83 76" fill="none" xmlns="http://www.w3.org/2000/svg">
<path fill-rule="evenodd" clip-rule="evenodd" d="M53.773 7.64806C48.3183 -1.71711 34.6817 -1.71713 29.227 7.64805L23.9398 16.7259C24.7451 16.1479 25.5848 15.6123 26.4589 15.1189C31.0968 12.4796 36.3145 11.16 42.1119 11.16C45.934 11.16 49.4769 11.6921 52.7406 12.7564C54.6673 13.3805 56.4648 14.1731 58.133 15.1339L53.773 7.64806ZM69.672 34.9454H56.6378C56.3801 33.1363 55.8541 31.5293 55.0596 30.1245C54.2651 28.6984 53.2452 27.4852 51.9998 26.4849C50.7545 25.4845 49.3158 24.7182 47.684 24.1862C46.0736 23.654 44.3236 23.3879 42.434 23.3879C39.02 23.3879 36.0461 24.2287 33.5124 25.9102C30.9787 27.5704 29.014 29.9968 27.6183 33.1894C26.2226 36.3608 25.5248 40.2133 25.5248 44.7469C25.5248 49.4082 26.2226 53.3246 27.6183 56.496C29.0354 59.6673 31.0109 62.0619 33.5446 63.6795C36.0783 65.2971 39.0092 66.106 42.3374 66.106C44.2055 66.106 45.934 65.8611 47.5229 65.3716C49.1333 64.8821 50.5612 64.169 51.8066 63.2325C53.052 62.2748 54.0826 61.1147 54.8986 59.7525C55.736 58.3903 56.3157 56.8365 56.6378 55.0912L70.7449 55.155C70.38 58.1561 69.4674 61.0509 68.0073 63.8391C66.5686 66.6061 64.6255 69.0857 62.1776 71.2781C60.2511 73.0019 58.0267 74.4439 55.5045 75.6041H68.8073C79.7166 75.6041 86.5349 63.8976 81.0802 54.5325L69.672 34.9454ZM28.7439 75.6041C27.9214 75.2324 27.1167 74.8226 26.33 74.375C21.7135 71.7357 18.0632 67.9151 15.3792 62.9132C12.7167 57.9114 11.3855 51.856 11.3855 44.7469C11.3855 42.1382 11.5665 39.6719 11.9286 37.3481L1.91978 54.5325C-3.53487 63.8976 3.28342 75.6041 14.1927 75.6041H28.7439Z" fill="currentColor"/>
</svg>
