<svg width="34" height="7" viewBox="0 0 34 7" fill="none" xmlns="http://www.w3.org/2000/svg">
<path d="M3.61364 6.27273C2.77273 6.27273 2.05114 5.97159 1.44886 5.36932C0.846591 4.76705 0.545455 4.04545 0.545455 3.20455C0.545455 2.36364 0.846591 1.64205 1.44886 1.03977C2.05114 0.4375 2.77273 0.136364 3.61364 0.136364C4.45455 0.136364 5.17614 0.4375 5.77841 1.03977C6.38068 1.64205 6.68182 2.36364 6.68182 3.20455C6.68182 3.76136 6.53977 4.27273 6.25568 4.73864C5.98295 5.20455 5.61364 5.57955 5.14773 5.86364C4.69318 6.13636 4.18182 6.27273 3.61364 6.27273ZM16.8324 6.27273C15.9915 6.27273 15.2699 5.97159 14.6676 5.36932C14.0653 4.76705 13.7642 4.04545 13.7642 3.20455C13.7642 2.36364 14.0653 1.64205 14.6676 1.03977C15.2699 0.4375 15.9915 0.136364 16.8324 0.136364C17.6733 0.136364 18.3949 0.4375 18.9972 1.03977C19.5994 1.64205 19.9006 2.36364 19.9006 3.20455C19.9006 3.76136 19.7585 4.27273 19.4744 4.73864C19.2017 5.20455 18.8324 5.57955 18.3665 5.86364C17.9119 6.13636 17.4006 6.27273 16.8324 6.27273ZM30.0511 6.27273C29.2102 6.27273 28.4886 5.97159 27.8864 5.36932C27.2841 4.76705 26.983 4.04545 26.983 3.20455C26.983 2.36364 27.2841 1.64205 27.8864 1.03977C28.4886 0.4375 29.2102 0.136364 30.0511 0.136364C30.892 0.136364 31.6136 0.4375 32.2159 1.03977C32.8182 1.64205 33.1193 2.36364 33.1193 3.20455C33.1193 3.76136 32.9773 4.27273 32.6932 4.73864C32.4205 5.20455 32.0511 5.57955 31.5852 5.86364C31.1307 6.13636 30.6193 6.27273 30.0511 6.27273Z" fill="currentColor"/>
</svg>
