<svg width="157" height="182" viewBox="0 0 157 182" fill="none" xmlns="http://www.w3.org/2000/svg">
<g clip-path="url(#clip0_40_2)">
<path d="M130.833 39.25H104.667V26.1667C104.667 18.9055 98.8446 13.0834 91.5833 13.0834H65.4167C58.1554 13.0834 52.3333 18.9055 52.3333 26.1667V39.25H26.1667C18.9054 39.25 13.1488 45.0721 13.1488 52.3334L13.0833 124.292C13.0833 131.553 18.9054 137.375 26.1667 137.375H130.833C138.095 137.375 143.917 131.553 143.917 124.292V52.3334C143.917 45.0721 138.095 39.25 130.833 39.25ZM91.5833 39.25H65.4167V26.1667H91.5833V39.25Z" fill="currentColor"/>
</g>
<path d="M46.0455 174L39.6818 150.727H42.5455L47.4091 169.682H47.6364L52.5909 150.727H55.7727L60.7273 169.682H60.9545L65.8182 150.727H68.6818L62.3182 174H59.4091L54.2727 155.455H54.0909L48.9545 174H46.0455ZM77.2955 174.364C75.7197 174.364 74.3371 173.989 73.1477 173.239C71.9659 172.489 71.0417 171.439 70.375 170.091C69.7159 168.742 69.3864 167.167 69.3864 165.364C69.3864 163.545 69.7159 161.958 70.375 160.602C71.0417 159.246 71.9659 158.193 73.1477 157.443C74.3371 156.693 75.7197 156.318 77.2955 156.318C78.8712 156.318 80.25 156.693 81.4318 157.443C82.6212 158.193 83.5455 159.246 84.2045 160.602C84.8712 161.958 85.2045 163.545 85.2045 165.364C85.2045 167.167 84.8712 168.742 84.2045 170.091C83.5455 171.439 82.6212 172.489 81.4318 173.239C80.25 173.989 78.8712 174.364 77.2955 174.364ZM77.2955 171.955C78.4924 171.955 79.4773 171.648 80.25 171.034C81.0227 170.42 81.5947 169.614 81.9659 168.614C82.3371 167.614 82.5227 166.53 82.5227 165.364C82.5227 164.197 82.3371 163.11 81.9659 162.102C81.5947 161.095 81.0227 160.28 80.25 159.659C79.4773 159.038 78.4924 158.727 77.2955 158.727C76.0985 158.727 75.1136 159.038 74.3409 159.659C73.5682 160.28 72.9962 161.095 72.625 162.102C72.2538 163.11 72.0682 164.197 72.0682 165.364C72.0682 166.53 72.2538 167.614 72.625 168.614C72.9962 169.614 73.5682 170.42 74.3409 171.034C75.1136 171.648 76.0985 171.955 77.2955 171.955ZM89.2983 174V156.545H91.8892V159.182H92.071C92.3892 158.318 92.965 157.617 93.7983 157.08C94.6316 156.542 95.571 156.273 96.6165 156.273C96.8134 156.273 97.0597 156.277 97.3551 156.284C97.6506 156.292 97.8741 156.303 98.0256 156.318V159.045C97.9347 159.023 97.7263 158.989 97.4006 158.943C97.0824 158.89 96.7453 158.864 96.3892 158.864C95.5407 158.864 94.7831 159.042 94.1165 159.398C93.4574 159.746 92.9347 160.231 92.5483 160.852C92.1695 161.466 91.9801 162.167 91.9801 162.955V174H89.2983ZM103.705 167.636L103.659 164.318H104.205L111.841 156.545H115.159L107.023 164.773H106.795L103.705 167.636ZM101.205 174V150.727H103.886V174H101.205ZM112.295 174L105.477 165.364L107.386 163.5L115.705 174H112.295Z" fill="currentColor"/>
<defs>
<clipPath id="clip0_40_2">
<rect width="157" height="157" fill="transparent"/>
</clipPath>
</defs>
</svg>
