<svg width="84" height="76" viewBox="0 0 84 76" fill="none" xmlns="http://www.w3.org/2000/svg">
<path fill-rule="evenodd" clip-rule="evenodd" d="M53.8568 7.09684C48.3936 -2.3656 34.7358 -2.36562 29.2726 7.09682L23.9771 16.269C24.7837 15.685 25.6247 15.1438 26.5001 14.6453C31.1453 11.9786 36.3711 10.6453 42.1776 10.6453C46.0056 10.6453 49.554 11.1829 52.8228 12.2582C54.7525 12.8888 56.5528 13.6896 58.2236 14.6604L53.8568 7.09684ZM69.7806 34.6777H56.7261C56.468 32.8498 55.9412 31.2261 55.1454 29.8067C54.3497 28.3658 53.3282 27.14 52.0809 26.1293C50.8336 25.1185 49.3927 24.3443 47.7583 23.8067C46.1454 23.269 44.3927 23.0002 42.5002 23.0002C39.0808 23.0002 36.1023 23.8497 33.5646 25.5486C31.027 27.2261 29.0592 29.6777 27.6614 32.9035C26.2635 36.1078 25.5646 40.0003 25.5646 44.581C25.5646 49.2907 26.2635 53.2478 27.6614 56.4521C29.0807 59.6564 31.0592 62.0758 33.5969 63.7102C36.1345 65.3446 39.07 66.1619 42.4034 66.1619C44.2744 66.1619 46.0056 65.9145 47.597 65.4199C49.2099 64.9253 50.64 64.2048 51.8874 63.2586C53.1347 62.2909 54.1669 61.1188 54.9842 59.7424C55.8229 58.3661 56.4035 56.7962 56.7261 55.0327L70.8552 55.0972C70.4897 58.1295 69.5757 61.0543 68.1133 63.8715C66.6724 66.6672 64.7262 69.1726 62.2745 71.3877C60.345 73.1294 58.1172 74.5864 55.591 75.7587H68.9146C79.8409 75.7587 86.6698 63.9306 81.2066 54.4682L69.7806 34.6777ZM28.7887 75.7587C27.9649 75.3831 27.159 74.9691 26.371 74.5168C21.7473 71.8501 18.0914 67.9898 15.4032 62.936C12.7365 57.8822 11.4032 51.7639 11.4032 44.581C11.4032 41.9452 11.5845 39.4533 11.9472 37.1053L1.92277 54.4682C-3.54038 63.9306 3.28854 75.7587 14.2148 75.7587H28.7887Z" fill="#0047FF"/>
</svg>
