<svg version="1.1" id="Layer_1" xmlns="http://www.w3.org/2000/svg" xmlns:xlink="http://www.w3.org/1999/xlink" x="0px" y="0px"
	 width="100%" viewBox="0 0 558 1312" enable-background="new 0 0 558 1312" xml:space="preserve">
<path fill="currentColor" opacity="1.000000" stroke="none" 
	d="
M1.000000,1304.000000 
	C1.000000,1302.285645 1.000000,1300.571289 1.344610,1298.347412 
	C2.102312,1297.330078 2.518644,1296.824707 2.927973,1296.313843 
	C9.120327,1288.584351 14.650449,1280.179199 21.673378,1273.297485 
	C30.140257,1265.000854 39.925182,1258.058105 49.040516,1250.411255 
	C54.568062,1245.774170 60.077385,1241.090576 65.286644,1236.105713 
	C70.915413,1230.719482 77.474457,1225.681763 76.063316,1216.329712 
	C75.913399,1215.336182 76.297081,1213.815796 77.005867,1213.212524 
	C81.134911,1209.697632 84.967308,1205.245728 89.785629,1203.265259 
	C97.256073,1200.194580 100.238739,1197.785889 99.909409,1189.583496 
	C99.668396,1183.580811 98.611130,1177.609375 97.883553,1171.628052 
	C97.235512,1166.300537 97.890076,1160.260742 95.533264,1155.831787 
	C92.414825,1149.971558 95.334496,1147.587280 98.856400,1144.679810 
	C100.963547,1142.940308 103.842285,1141.869507 105.374184,1139.768921 
	C107.154236,1137.328003 107.999275,1134.141479 108.971634,1131.186890 
	C112.049309,1121.835205 113.797661,1112.307495 113.106308,1102.363403 
	C112.871361,1098.984131 113.654495,1095.530762 114.003754,1092.114502 
	C114.701454,1085.290039 114.698647,1078.296143 116.271812,1071.677979 
	C120.363281,1054.465576 121.636284,1036.963135 123.063446,1019.434753 
	C123.681969,1011.837769 124.483536,1004.183655 126.138939,996.764526 
	C127.660965,989.943176 130.476318,983.414124 132.656815,976.735046 
	C135.129929,969.159668 138.800583,961.698975 139.645111,953.937561 
	C140.729187,943.974854 139.962494,933.726501 139.153503,923.668701 
	C138.500931,915.555603 136.544006,907.482544 140.692093,899.811035 
	C146.570602,888.939331 145.535324,877.486023 144.023270,865.917053 
	C143.223373,859.796875 142.467697,853.657227 142.087601,847.501892 
	C141.909317,844.614868 142.809830,841.678162 142.975174,838.750061 
	C143.699738,825.917725 144.250488,813.075134 145.044098,800.247375 
	C145.345764,795.371338 146.113373,790.523071 146.698944,785.665771 
	C147.787552,776.636047 149.189911,767.631775 149.901489,758.572937 
	C150.408844,752.113892 149.730988,745.568237 150.084274,739.088562 
	C150.372025,733.810913 149.836899,729.425781 144.423767,726.787537 
	C142.284714,725.744934 140.497696,723.874512 138.734497,722.188477 
	C135.178177,718.788025 133.209259,715.240723 134.509369,709.669189 
	C137.185394,698.201416 139.857056,686.583008 140.771423,674.888977 
	C142.130783,657.504395 146.725662,640.888367 150.463333,624.040100 
	C152.695969,613.976135 154.900223,603.904724 156.977722,593.807922 
	C158.505600,586.382385 159.366364,578.793213 161.306717,571.484619 
	C164.755203,558.495483 168.796814,545.663757 172.395233,533.429321 
	C168.871292,531.350525 166.309891,529.447754 163.456451,528.228210 
	C154.071274,524.216919 144.506012,520.623718 135.150635,516.546997 
	C125.735458,512.444153 116.432404,508.071198 107.185532,503.598877 
	C99.603996,499.931946 91.798340,496.569946 86.213570,489.771149 
	C83.189011,486.089050 79.652481,482.820679 76.713112,479.078064 
	C75.085487,477.005676 73.620308,474.459564 73.109436,471.920258 
	C71.482819,463.835052 70.783836,455.546326 68.870522,447.540802 
	C67.241493,440.724762 67.968246,433.874725 71.873062,429.066101 
	C81.519691,417.186493 82.554359,401.793274 89.872047,389.037109 
	C93.974815,381.885193 96.799675,373.975525 99.921425,366.293884 
	C102.135078,360.846832 102.858841,354.507080 106.077202,349.822845 
	C110.908264,342.791382 111.828354,334.612244 114.998360,327.159210 
	C116.750702,323.039276 118.713440,318.956177 119.932594,314.671875 
	C123.796402,301.093842 126.923714,287.292938 131.166641,273.840271 
	C134.619598,262.892334 138.210526,252.084229 139.045639,240.536102 
	C139.542923,233.659500 142.277420,228.272415 149.523193,226.048141 
	C153.330978,224.879272 157.092407,223.411743 160.652542,221.634079 
	C163.158203,220.382950 166.603134,220.151413 167.408920,216.330551 
	C167.553009,215.647324 169.885498,215.230728 171.256454,215.036606 
	C175.930298,214.374756 180.629852,213.897217 185.312515,213.294357 
	C193.677841,212.217361 202.043213,211.137146 210.395676,209.966476 
	C211.926361,209.751938 213.493515,209.298737 214.875626,208.615463 
	C219.155197,206.499725 223.126114,203.152557 227.624054,202.193802 
	C244.501541,198.596237 256.748505,188.683487 266.210632,175.000443 
	C268.232849,172.076111 268.947510,167.625946 268.776367,163.947983 
	C268.499939,158.008011 267.421844,152.010178 265.887634,146.248398 
	C264.036774,139.297455 264.578583,130.573334 254.868515,128.300980 
	C254.318832,128.172348 253.968216,127.337692 253.441895,126.942177 
	C248.425766,123.172806 248.613449,117.442734 247.462585,112.058525 
	C245.354370,102.195412 242.118256,92.410095 250.639282,83.780266 
	C251.096039,83.317665 250.937622,82.208488 250.993668,81.395340 
	C251.670303,71.577805 252.258514,61.753376 253.038391,51.944149 
	C253.333237,48.235443 253.788620,44.496429 254.644073,40.883278 
	C257.456970,29.002567 266.303558,21.469242 275.007233,14.118882 
	C279.985291,9.914865 285.672791,6.367849 291.491699,3.412776 
	C294.865997,1.699178 299.134125,1.745600 303.000000,1.000000 
	C314.354218,1.000000 325.708466,1.000000 337.645172,1.366678 
	C345.161957,5.666271 352.212433,9.411504 358.985870,13.604289 
	C362.887573,16.019476 367.015656,18.603918 369.870361,22.075508 
	C378.469086,32.532291 381.350128,44.976116 381.042114,58.362221 
	C380.824493,67.818748 381.000000,77.284317 381.000000,86.590134 
	C389.819061,90.811050 389.373260,90.752693 388.123444,100.299911 
	C386.388733,113.550987 381.596283,125.159012 373.747620,136.068924 
	C366.852112,145.653839 366.625793,157.567413 368.655579,168.616028 
	C369.625549,173.895721 375.127777,178.364029 378.644287,183.150543 
	C388.369385,196.387665 401.815216,203.213135 417.697144,206.072327 
	C422.539886,206.944138 427.321411,208.407394 431.969421,210.055481 
	C440.817322,213.192764 449.300659,217.971588 458.385223,219.688553 
	C473.060089,222.462082 486.495728,227.318039 498.539734,236.078110 
	C500.794495,237.718048 502.682159,239.331131 502.052338,242.739243 
	C498.092010,264.170410 510.103546,281.821564 515.959229,300.943451 
	C518.190491,308.229584 520.450317,315.559052 521.875916,323.025543 
	C523.370972,330.856079 521.659790,339.439209 527.968201,346.014252 
	C528.574341,346.646027 528.765686,347.744904 528.987061,348.665985 
	C530.862854,356.470642 531.939697,364.569489 534.732483,372.027252 
	C538.712952,382.656464 544.083801,392.757690 548.545959,403.218719 
	C549.720276,405.971710 550.864136,409.587860 550.024902,412.154633 
	C548.692627,416.228943 547.337708,419.272217 549.791016,423.788849 
	C553.595703,430.793335 556.001282,438.557770 559.000000,446.000000 
	C559.000000,458.354218 559.000000,470.708466 558.639160,483.626526 
	C557.318359,486.165039 556.854492,488.743134 555.312927,490.010651 
	C548.427856,495.671844 541.666382,501.692047 534.035706,506.180847 
	C525.952148,510.936035 516.964111,514.169434 508.322266,517.956116 
	C492.655212,524.820984 477.907196,534.273438 460.068207,535.104370 
	C458.760132,535.165283 457.503479,536.330933 455.705994,537.246216 
	C461.611237,543.631836 462.389099,551.204956 462.015381,559.128479 
	C461.054077,579.508484 463.513031,599.513977 467.813538,619.444336 
	C469.833038,628.803528 469.854156,638.581238 471.053192,648.135132 
	C471.775421,653.890320 472.715271,659.655701 474.111420,665.278992 
	C475.763062,671.931213 478.268188,678.371094 479.928101,685.021729 
	C481.526367,691.425415 483.698730,698.018677 483.489563,704.459534 
	C483.203644,713.263977 488.942841,723.768555 477.407410,730.428406 
	C474.403198,732.162964 472.124176,734.486633 468.308838,734.103333 
	C467.297821,734.001709 465.436981,734.947998 465.201782,735.767578 
	C463.921387,740.229370 462.532349,744.755493 462.100616,749.345947 
	C461.116516,759.809143 460.058044,770.326477 460.124023,780.814880 
	C460.271790,804.303467 459.603699,827.724121 457.003754,851.076538 
	C456.533264,855.302246 456.916382,859.821350 455.523193,863.709778 
	C450.882111,876.662903 454.432190,889.768921 454.126221,902.774902 
	C453.912750,911.848145 454.776825,920.942688 454.918182,930.031494 
	C454.949249,932.029358 454.594208,934.673401 453.333160,935.945801 
	C445.975159,943.370544 450.085388,951.914734 450.620880,960.070007 
	C450.752106,962.068787 451.210907,964.802673 452.562012,965.839050 
	C460.020355,971.560181 459.340179,980.677979 460.521606,988.008972 
	C463.072876,1003.839966 463.398773,1020.082031 463.875641,1036.178467 
	C464.268341,1049.432617 465.722351,1062.195679 469.627441,1075.074951 
	C472.880341,1085.803345 473.245087,1097.549194 473.862946,1108.900391 
	C474.736969,1124.956787 474.659241,1141.064697 475.018463,1157.150024 
	C475.040039,1158.116699 475.238708,1159.102783 475.505127,1160.036865 
	C477.191711,1165.950928 477.938995,1171.542358 473.678467,1177.048340 
	C471.951080,1179.280518 471.606293,1182.723389 471.063049,1185.694092 
	C470.448151,1189.057007 471.000092,1192.766357 469.829315,1195.866089 
	C467.568695,1201.851196 469.921814,1205.553711 473.969727,1209.694214 
	C479.071716,1214.912964 484.165771,1220.494629 487.685150,1226.800415 
	C490.876312,1232.518188 497.784912,1235.922852 498.002655,1243.407349 
	C498.008972,1243.624268 498.847748,1243.752930 499.214447,1244.032593 
	C510.983856,1253.008789 522.754944,1261.982788 534.487183,1271.007446 
	C535.831604,1272.041504 537.185791,1273.208252 538.131531,1274.589844 
	C541.843445,1280.012939 545.360107,1285.569092 549.021301,1291.027588 
	C550.370544,1293.039062 552.226196,1294.772217 553.238525,1296.920898 
	C553.699158,1297.898560 553.064270,1300.426392 552.255371,1300.800659 
	C546.952271,1303.254150 541.570740,1305.654175 535.997314,1307.361328 
	C532.938293,1308.298340 529.431702,1307.660645 526.166321,1308.057373 
	C511.364136,1309.856445 496.530762,1310.021118 481.979004,1306.803467 
	C473.673889,1304.966919 464.929596,1302.727295 461.404175,1293.036743 
	C460.842712,1291.493408 459.093048,1290.010742 457.528229,1289.264893 
	C448.008453,1284.727417 439.997101,1278.208008 432.406921,1271.023926 
	C429.965912,1268.713623 427.419800,1268.028198 424.327393,1270.975464 
	C420.588287,1274.538940 416.025116,1274.373169 411.497101,1271.860474 
	C408.020905,1269.931641 404.213623,1268.531738 400.944031,1266.319702 
	C398.326691,1264.548950 395.136597,1262.285278 394.260010,1259.574463 
	C392.689667,1254.718384 392.224579,1249.372803 392.090942,1244.211304 
	C391.797699,1232.885620 392.142487,1221.544189 391.907623,1210.215820 
	C391.842499,1207.075806 391.441956,1203.463745 389.839752,1200.923218 
	C384.791809,1192.919067 385.609222,1184.192871 386.352386,1175.676758 
	C386.774048,1170.844849 387.242798,1166.514038 385.147064,1161.904785 
	C384.108276,1159.620117 384.431549,1156.586304 384.585449,1153.917236 
	C384.875153,1148.893066 386.289185,1143.809448 385.808838,1138.889893 
	C384.640991,1126.930054 382.713409,1115.041504 380.979584,1103.140625 
	C379.834991,1095.284058 378.476715,1087.458740 377.248474,1079.614136 
	C375.779266,1070.230469 371.045807,1061.455078 372.826172,1051.408325 
	C373.546600,1047.343018 372.510040,1042.912231 371.963074,1038.687866 
	C370.838806,1030.005005 369.496765,1021.350464 368.266541,1012.681152 
	C368.032379,1011.031250 367.234894,1009.062988 367.830353,1007.759155 
	C371.382721,999.981323 368.285339,991.987854 368.862579,984.133789 
	C369.082825,981.137146 368.331421,977.952881 367.469757,975.016418 
	C365.493744,968.282349 362.743774,961.752380 361.107849,954.947266 
	C358.997437,946.168335 357.964813,937.132324 355.909119,928.337646 
	C354.237305,921.185303 351.416870,914.303101 349.710449,907.156677 
	C348.208679,900.867310 347.864960,894.305481 346.436798,887.993591 
	C344.212097,878.161438 341.404602,868.462769 339.023193,858.664001 
	C336.176422,846.950195 333.857819,835.096619 330.645996,823.487427 
	C328.831360,816.928284 324.443481,810.935852 323.392395,804.341064 
	C321.213531,790.670044 315.832336,778.513672 308.961853,766.805908 
	C306.900543,763.293335 304.604706,759.918457 301.623810,755.235474 
	C299.994354,759.298767 298.705841,761.714294 298.053650,764.290833 
	C296.238251,771.462830 294.663910,778.696472 293.037140,785.915466 
	C290.989410,795.002686 289.007568,804.104797 286.951935,813.190247 
	C285.678101,818.820496 284.523834,824.490295 282.932434,830.032166 
	C281.755432,834.130859 279.795227,837.999756 278.504150,842.072510 
	C277.776764,844.367065 277.922119,846.928650 277.283386,849.263000 
	C275.638641,855.274231 273.349121,861.140076 272.125732,867.226501 
	C270.995026,872.851746 269.320953,877.966736 266.180969,882.862427 
	C264.303833,885.789124 263.453064,889.681580 263.146057,893.226929 
	C262.794739,897.283386 261.160126,900.056824 258.095673,902.500244 
	C256.160339,904.043213 253.821625,905.892395 253.148819,908.064270 
	C250.450760,916.773865 248.393204,925.679749 245.974030,934.478760 
	C244.790573,938.783325 243.353058,943.018860 241.993958,947.273987 
	C240.840652,950.884888 240.318375,954.933289 238.295761,957.976501 
	C235.061768,962.842346 230.459351,966.787964 227.118530,971.597168 
	C224.719376,975.050720 222.952805,979.146851 221.843048,983.212585 
	C221.229858,985.459167 223.013031,988.250122 222.923569,990.767517 
	C222.414001,1005.109619 221.820206,1019.453003 220.912369,1033.774292 
	C220.607483,1038.583862 219.339584,1043.337891 218.432480,1048.102051 
	C217.682312,1052.041992 216.713226,1055.941650 216.021484,1059.890747 
	C214.627960,1067.846436 214.120361,1076.048584 211.855148,1083.738892 
	C208.539307,1094.995972 203.348068,1105.709595 200.177429,1116.997803 
	C197.367645,1127.001343 190.912781,1133.504639 183.161850,1139.343872 
	C177.274078,1143.779419 176.563492,1145.989014 178.994202,1153.348755 
	C179.995621,1156.380859 181.577545,1159.351440 181.904724,1162.454590 
	C183.926437,1181.630005 179.660492,1200.404907 177.800476,1219.326294 
	C176.978424,1227.688599 174.992279,1235.933228 174.085663,1244.291016 
	C173.201904,1252.438354 170.422363,1256.725830 162.366669,1257.848999 
	C154.351898,1258.966187 147.349365,1261.953735 140.370163,1265.798950 
	C132.806305,1269.966553 124.587196,1272.946899 117.035042,1277.132690 
	C112.267105,1279.775513 108.082382,1283.539429 103.842796,1287.050049 
	C97.911217,1291.961792 91.295975,1296.419067 86.630836,1302.370117 
	C82.962807,1307.049072 79.300140,1310.072632 73.642235,1311.070435 
	C70.738373,1311.582520 67.879303,1312.348633 65.000000,1313.000000 
	C53.979103,1313.000000 42.958210,1313.000000 31.315735,1312.601685 
	C20.285683,1311.316528 9.993152,1310.010010 1.000000,1304.000000 
M171.049210,425.567383 
	C169.597687,430.209808 168.146149,434.852203 166.905075,438.821533 
	C170.071350,440.243256 172.544525,441.239685 174.912872,442.442505 
	C179.008850,444.522705 182.414093,442.783630 181.901260,438.265167 
	C180.783707,428.418701 179.125702,418.633514 177.688553,408.823303 
	C176.813446,408.718475 175.938339,408.613678 175.063232,408.508850 
	C174.375748,410.118286 173.362915,411.670319 173.066605,413.348816 
	C172.391586,417.172607 172.067993,421.058411 171.049210,425.567383 
M467.039490,448.563934 
	C462.424530,444.726257 460.580688,439.928375 460.880432,433.841736 
	C461.128906,428.796753 460.583313,423.665497 459.901306,418.638733 
	C459.462372,415.403412 458.140228,412.287964 457.213928,409.118774 
	C456.723969,409.216583 456.233978,409.314362 455.743988,409.412170 
	C454.552277,423.157257 453.360596,436.902313 452.058289,451.923096 
	C457.505768,450.930817 462.540039,450.013824 467.039490,448.563934 
z"/>
</svg>