<svg width="1920" height="777" viewBox="0 0 1920 777" fill="none" xmlns="http://www.w3.org/2000/svg">
<g clip-path="url(#clip0_2_437)">
<path d="M1553.48 410.229H1601.29V776.839H1553.48V410.229Z" fill="currentColor"/>
<path d="M1571.33 461.09C1571.99 462.168 1572.89 463.053 1573.95 463.665C1575 464.278 1576.18 464.599 1577.38 464.599C1578.58 464.599 1579.77 464.278 1580.82 463.665C1581.88 463.053 1582.78 462.168 1583.44 461.09L1611.29 415.549C1612.01 414.374 1612.42 413.013 1612.48 411.608C1612.53 410.203 1612.24 408.808 1611.62 407.571C1610.99 406.333 1610.07 405.299 1608.95 404.579C1607.83 403.858 1606.55 403.478 1605.24 403.478H1549.53C1548.22 403.478 1546.94 403.859 1545.82 404.579C1544.7 405.3 1543.78 406.333 1543.15 407.571C1542.53 408.808 1542.24 410.203 1542.29 411.607C1542.35 413.011 1542.76 414.373 1543.48 415.547L1571.33 461.09Z" fill="currentColor"/>
<path d="M1558.31 314.682H1596.94C1606.28 314.682 1613.84 322.819 1613.84 332.857V406.594C1613.84 416.632 1606.28 424.769 1596.94 424.769H1558.31C1548.98 424.769 1541.41 416.632 1541.41 406.594V332.857C1541.41 322.819 1548.98 314.682 1558.31 314.682Z" fill="currentColor"/>
<path d="M1577.14 391.535L1638.47 305.854H1515.81L1577.14 391.535Z" fill="currentColor"/>
<path d="M1505.67 297.027H1649.58V302.219H1505.67V297.027Z" fill="currentColor"/>
<path d="M1638.23 293.392L1650.54 281.968H1625.92L1638.23 293.392Z" fill="currentColor"/>
<path d="M1515.57 293.392L1527.89 281.968H1503.26L1515.57 293.392Z" fill="currentColor"/>
<path d="M1515.81 281.968H1638.47V293.392H1515.81V281.968Z" fill="currentColor"/>
<path d="M1481.53 274.178H1672.76V278.333H1481.53V274.178Z" fill="currentColor"/>
<path d="M1623.74 258.081L1597.91 269.505H1649.58L1623.74 258.081Z" fill="currentColor"/>
<path d="M1529.09 258.081L1503.26 269.505H1554.93L1529.09 258.081Z" fill="currentColor"/>
<path d="M1528.85 258.081H1623.98V269.505H1528.85V258.081Z" fill="currentColor"/>
<path d="M1607.57 226.405L1591.63 254.965H1623.5L1607.57 226.405Z" fill="currentColor"/>
<path d="M1544.79 226.405L1528.85 254.965H1560.72L1544.79 226.405Z" fill="currentColor"/>
<path d="M1544.79 226.405H1607.57V254.965H1544.79V226.405Z" fill="currentColor"/>
<path d="M1590.66 167.727L1573.76 223.808H1607.57L1590.66 167.727Z" fill="currentColor"/>
<path d="M1561.69 167.727L1544.79 223.808H1578.59L1561.69 167.727Z" fill="currentColor"/>
<path d="M1561.69 167.727H1590.66V216.539H1561.69V167.727Z" fill="currentColor"/>
<path d="M1561.93 164.611L1567 152.148H1556.86L1561.93 164.611Z" fill="currentColor"/>
<path d="M1589.94 164.611L1595.01 152.148H1584.87L1589.94 164.611Z" fill="currentColor"/>
<path d="M1561.69 152.148H1590.18V164.611H1561.69V152.148Z" fill="currentColor"/>
<path d="M1575.94 106.452L1561.69 149.033H1590.18L1575.94 106.452Z" fill="currentColor"/>
<path d="M1575.94 127.742L1587.28 115.28H1564.59L1575.94 127.742Z" fill="currentColor"/>
<path d="M1575.94 0L1571.35 115.28H1580.52L1575.94 0Z" fill="currentColor"/>
<path d="M1600.8 704.659L1587.77 776.839H1613.84L1600.8 704.659Z" fill="currentColor"/>
<path d="M1553.48 704.659L1540.44 776.839H1566.52L1553.48 704.659Z" fill="currentColor"/>
<path d="M1810.87 470.465H1917.59V776.839H1810.87V470.465Z" fill="currentColor"/>
<path d="M0 759.183H1833.08V776.839H0V759.183Z" fill="currentColor"/>
<path d="M0.241943 759.443H1832.84V776.579H0.241943V759.443Z" stroke="currentColor"/>
<path d="M1620.6 504.218H1708.49V776.839H1620.6V504.218Z" fill="currentColor"/>
<path d="M1719.6 580.033H1799.76V776.839H1719.6V580.033Z" fill="currentColor"/>
<path d="M1864.23 471.504C1836.09 471.504 1813.28 463.483 1813.28 453.589C1813.28 443.694 1836.09 435.674 1864.23 435.674C1892.36 435.674 1915.17 443.694 1915.17 453.589C1915.17 463.483 1892.36 471.504 1864.23 471.504Z" stroke="currentColor" stroke-width="20"/>
<path d="M1672.76 667.271H1833.08V769.569H1672.76V667.271Z" fill="currentColor"/>
<path d="M1471.39 623.652H1566.52V761.78H1471.39V623.652Z" fill="currentColor"/>
<path d="M1405.71 525.509H1481.53V761.78H1405.71V525.509Z" fill="currentColor"/>
<path d="M1318.79 599.765H1394.61V761.78H1318.79V599.765Z" fill="currentColor"/>
<path d="M1376.26 553.03L1357.91 600.804H1394.61L1376.26 553.03Z" fill="currentColor"/>
<path d="M1337.14 553.03L1318.79 600.804H1355.49L1337.14 553.03Z" fill="currentColor"/>
<path d="M1337.14 553.03H1376.26V600.804H1337.14V553.03Z" fill="currentColor"/>
<path d="M1376.26 714.525H1428.89V769.569H1376.26V714.525Z" fill="currentColor"/>
<path d="M1184.55 599.765H1279.68V761.78H1184.55V599.765Z" fill="currentColor"/>
<path d="M1028.33 762.039L698.994 682.071" stroke="currentColor" stroke-width="15"/>
<path d="M698.994 681.811H334.407" stroke="currentColor" stroke-width="15"/>
<path d="M334.407 682.071L6.03647 759.443" stroke="currentColor" stroke-width="15"/>
<path d="M700.926 681.032L632.837 638.971" stroke="currentColor" stroke-width="5"/>
<path d="M666.881 682.071V657.665" stroke="currentColor" stroke-width="5"/>
<path d="M666.881 657.665L649.497 680.513" stroke="currentColor" stroke-width="5"/>
<path d="M337.304 681.551L400.563 638.971" stroke="currentColor" stroke-width="5"/>
<path d="M688.612 715.564H713.239V773.204H688.612V715.564Z" fill="currentColor"/>
<path d="M688.853 715.824H712.998V772.944H688.853V715.824Z" stroke="currentColor"/>
<path d="M322.093 715.564H346.72V773.204H322.093V715.564Z" fill="currentColor"/>
<path d="M322.334 715.824H346.479V772.944H322.334V715.824Z" stroke="currentColor"/>
<path d="M370.865 681.551V657.145" stroke="currentColor" stroke-width="5"/>
<path d="M370.865 657.145L386.837 679.993" stroke="currentColor" stroke-width="5"/>
<path d="M633.561 638.971H399.839" stroke="currentColor" stroke-width="5"/>
<path d="M400.563 638.971L386.837 679.993" stroke="currentColor" stroke-width="5"/>
<path d="M400.563 638.971L414.567 679.993" stroke="currentColor" stroke-width="5"/>
<path d="M430.02 638.971L414.567 679.993" stroke="currentColor" stroke-width="5"/>
<path d="M430.02 638.971L442.575 678.955" stroke="currentColor" stroke-width="5"/>
<path d="M455.131 638.451L442.576 678.955" stroke="currentColor" stroke-width="5"/>
<path d="M455.131 638.451L470.583 679.993" stroke="currentColor" stroke-width="5"/>
<path d="M484.104 638.451L470.583 679.993" stroke="currentColor" stroke-width="5"/>
<path d="M484.104 638.451L500.523 682.071" stroke="currentColor" stroke-width="5"/>
<path d="M512.113 638.971L500.523 682.071" stroke="currentColor" stroke-width="5"/>
<path d="M512.113 638.971L530.463 680.513" stroke="currentColor" stroke-width="5"/>
<path d="M543.984 638.971L530.463 680.513" stroke="currentColor" stroke-width="5"/>
<path d="M543.984 638.971L559.919 682.071" stroke="currentColor" stroke-width="5"/>
<path d="M576.821 638.971L559.919 682.071" stroke="currentColor" stroke-width="5"/>
<path d="M576.821 638.971L592.756 680.513" stroke="currentColor" stroke-width="5"/>
<path d="M607.726 638.971L592.756 680.513" stroke="currentColor" stroke-width="5"/>
<path d="M607.726 638.971L621.73 678.436" stroke="currentColor" stroke-width="5"/>
<path d="M632.837 638.971L621.73 678.436" stroke="currentColor" stroke-width="5"/>
<path d="M632.837 638.971L650.704 680.513" stroke="currentColor" stroke-width="5"/>
<path d="M650.704 649.356V680.513" stroke="currentColor" stroke-width="5"/>
<path d="M633.32 638.971L633.561 679.993" stroke="currentColor" stroke-width="5"/>
<path d="M621.007 639.49L621.248 680.513" stroke="currentColor" stroke-width="5"/>
<path d="M607.485 640.788L607.726 681.811" stroke="currentColor" stroke-width="5"/>
<path d="M592.757 639.75L592.998 680.772" stroke="currentColor" stroke-width="5"/>
<path d="M576.821 640.009L577.062 681.032" stroke="currentColor" stroke-width="5"/>
<path d="M559.437 639.49L559.678 680.513" stroke="currentColor" stroke-width="5"/>
<path d="M543.984 641.048L544.225 682.071" stroke="currentColor" stroke-width="5"/>
<path d="M529.498 637.932L529.739 678.955" stroke="currentColor" stroke-width="5"/>
<path d="M512.596 638.451L512.837 679.474" stroke="currentColor" stroke-width="5"/>
<path d="M499.799 638.451L500.04 679.474" stroke="currentColor" stroke-width="5"/>
<path d="M484.347 640.788L484.587 681.811" stroke="currentColor" stroke-width="5"/>
<path d="M470.101 639.75L470.342 680.772" stroke="currentColor" stroke-width="5"/>
<path d="M455.131 641.827L455.372 682.849" stroke="currentColor" stroke-width="5"/>
<path d="M429.538 640.009L429.779 681.032" stroke="currentColor" stroke-width="5"/>
<path d="M429.538 640.009L429.779 681.032" stroke="currentColor" stroke-width="5"/>
<path d="M414.568 638.451L414.809 679.474" stroke="currentColor" stroke-width="5"/>
<path d="M400.081 638.971L400.322 679.993" stroke="currentColor" stroke-width="5"/>
<path d="M385.836 648.577L386.318 680.772" stroke="currentColor" stroke-width="5"/>
<path d="M442.334 638.971L442.575 679.993" stroke="currentColor" stroke-width="5"/>
<path d="M698.994 720.497L641.529 681.032" stroke="currentColor" stroke-width="5"/>
<path d="M923.541 762.039L711.066 717.901" stroke="currentColor" stroke-width="5"/>
<path d="M698.994 720.497V683.109" stroke="currentColor" stroke-width="5"/>
<path d="M742.455 725.69V692.456" stroke="currentColor" stroke-width="5"/>
<path d="M783.018 733.998V700.765" stroke="currentColor" stroke-width="5"/>
<path d="M823.582 742.307V709.073" stroke="currentColor" stroke-width="5"/>
<path d="M864.145 751.135V717.901" stroke="currentColor" stroke-width="5"/>
<path d="M904.708 761.001V731.402" stroke="currentColor" stroke-width="5"/>
<path d="M945.755 769.569V739.97" stroke="currentColor" stroke-width="5"/>
<path d="M698.994 720.497L674.366 683.109" stroke="currentColor" stroke-width="5"/>
<path d="M698.994 720.497L742.455 696.091" stroke="currentColor" stroke-width="5"/>
<path d="M783.018 731.402L742.455 696.091" stroke="currentColor" stroke-width="5"/>
<path d="M783.018 731.402L823.582 715.823" stroke="currentColor" stroke-width="5"/>
<path d="M864.145 749.577L823.582 715.823" stroke="currentColor" stroke-width="5"/>
<path d="M864.145 749.577L904.708 734.518" stroke="currentColor" stroke-width="5"/>
<path d="M945.755 761.001L904.708 734.518" stroke="currentColor" stroke-width="5"/>
<path d="M387.042 683.109L334.407 717.382" stroke="currentColor" stroke-width="5"/>
<path d="M327.646 717.381L109.376 762.039" stroke="currentColor" stroke-width="5"/>
<path d="M334.407 681.032V717.381" stroke="currentColor" stroke-width="5"/>
<path d="M295.775 689.34V723.613" stroke="currentColor" stroke-width="5"/>
<path d="M257.142 698.428V732.7" stroke="currentColor" stroke-width="5"/>
<path d="M218.511 706.477V740.749" stroke="currentColor" stroke-width="5"/>
<path d="M179.879 715.823V748.538" stroke="currentColor" stroke-width="5"/>
<path d="M141.248 725.171V755.289" stroke="currentColor" stroke-width="5"/>
<path d="M102.616 733.479V763.597" stroke="currentColor" stroke-width="5"/>
<path d="M357.103 683.109L334.407 717.382" stroke="currentColor" stroke-width="5"/>
<path d="M295.775 693.495L334.407 717.381" stroke="currentColor" stroke-width="5"/>
<path d="M295.775 693.495L257.143 732.44" stroke="currentColor" stroke-width="5"/>
<path d="M216.579 710.631L257.142 732.44" stroke="currentColor" stroke-width="5"/>
<path d="M218.511 710.631L179.879 748.538" stroke="currentColor" stroke-width="5"/>
<path d="M141.247 729.844L179.879 748.538" stroke="currentColor" stroke-width="5"/>
<path d="M141.248 729.844L102.616 759.443" stroke="currentColor" stroke-width="5"/>
<path d="M66.8812 744.903L102.616 759.443" stroke="currentColor" stroke-width="5"/>
<path d="M66.8811 744.903V762.039" stroke="currentColor" stroke-width="5"/>
<path d="M512.113 611.968V638.451" stroke="currentColor" stroke-width="5"/>
<path d="M493.038 612.228H511.871V625.21H493.038V612.228Z" fill="currentColor"/>
</g>
<defs>
<clipPath id="clip0_2_437">
<rect width="1920" height="776.839" fill="currentColor" transform="matrix(-1 0 0 1 1920 0)"/>
</clipPath>
</defs>
</svg>
